<?xml version="1.0" encoding="utf-8"?>
<svg version="1.1" id="Layer_1" xmlns="http://www.w3.org/2000/svg" xmlns:xlink="http://www.w3.org/1999/xlink" x="0px" y="0px"
	 viewBox="0 0 161 173" style="enable-background:new 0 0 161 173;" xml:space="preserve">
<style type="text/css">
	.st0{fill-rule:evenodd;clip-rule:evenodd;}
</style>
<g>
	<path style="fill: #fff" class="st0" d="M118.9,65.8c-4.2-5.7-8.5-11.1-13.4-16.1c-35.1,9.6-67.1,23.6-96,38.6c0-8.2,0-16.3,0-24.5
		c23.2-19,47-37.3,70.6-55.9c23.7,18.4,47.1,37,70.6,55.7c0,7.6,0,15.2,0,22.8c-26.6,5.8-51.7,13.1-74.9,22.3
		c-0.3-0.7,0.9-1.9,1.7-2.9C89.4,91.4,104.2,77.9,118.9,65.8z"/>
	<path style="fill: #fff" class="st0" d="M32.5,128.9c4.5,5.8,9.1,11.5,14.2,16.8c31.6-14.4,66.1-25.9,103.9-34.1c0,17.1,0,34.2,0,51.4
		c-47,0-94.1,0-141.1,0c0-17.8,0-35.7,0-53.5c21.3-11,43.9-20.7,67.4-29.5c-1.1,1.8-3,3-4.6,4.3C57.5,97,44.1,112.6,32.5,128.9z"/>
</g>
</svg>
